# xmcd CD database file
#
# Track frame offsets:
#	150
#	17623
#	35355
#	49430
#	67208
#	76900
#	95531
#	104608
#	120603
#	136997
#	150230
#	167779
#
# Disc length: 2434 seconds
#
# Revision: 1
# Processed by: cddbd v1.5.1PL2 Copyright (c) Steve Scherf et al.
# Submitted via: CDex 1.51
#
DISCID=9b09800c
DTITLE=One Time Prophets - Whitebread
DYEAR=2006
DGENRE=Blues
TTITLE0=hands upon the wheel
TTITLE1=whitebread
TTITLE2=porch song
TTITLE3=staircase
TTITLE4=jonny's on the move
TTITLE5=nashville
TTITLE6=donkey
TTITLE7=country skies
TTITLE8=wearing a rainbow
TTITLE9=strangething
TTITLE10=maritime
TTITLE11=gold
EXTD=YEAR: 2006
EXTT0=
EXTT1=
EXTT2=
EXTT3=
EXTT4=
EXTT5=
EXTT6=
EXTT7=
EXTT8=
EXTT9=
EXTT10=
EXTT11=
PLAYORDER=
